<svg width="42" height="41" viewBox="0 0 42 41" fill="none" xmlns="http://www.w3.org/2000/svg">
<rect x="17.5" y="13.5" width="23" height="14" rx="0.5" stroke="black"/>
<rect x="0.25" y="25.25" width="14.5" height="0.5" rx="0.25" stroke="black" stroke-width="0.5"/>
<rect x="3.25" y="22.25" width="11.5" height="0.5" rx="0.25" stroke="black" stroke-width="0.5"/>
<rect x="6.25" y="19.25" width="8.5" height="0.5" rx="0.25" stroke="black" stroke-width="0.5"/>
<rect x="12.25" y="16.25" width="2.5" height="0.5" rx="0.25" stroke="black" stroke-width="0.5"/>
<path d="M28.5 13.5L39.5687 13.5C40.0154 13.5 40.2379 14.041 39.9205 14.3553L29.3559 24.8155C29.1611 25.0084 28.8473 25.0084 28.6524 24.8156L18.0807 14.3554C17.7632 14.0412 17.9857 13.5 18.4324 13.5L28.5 13.5Z" stroke="black"/>
<path d="M39.0858 27.5L29 27.5L18.716 27.5C18.2854 27.5 18.0562 26.992 18.3411 26.6692L23.6707 20.629C23.8615 20.4127 24.1952 20.4023 24.3991 20.6062L27.9393 24.1464C28.5251 24.7322 29.4749 24.7322 30.0607 24.1464L33.1464 21.0607C33.3417 20.8654 33.6583 20.8654 33.8536 21.0607L39.4393 26.6464C39.7543 26.9614 39.5312 27.5 39.0858 27.5Z" stroke="black"/>
</svg>
