<svg width="41" height="24" viewBox="0 0 41 24" fill="none" xmlns="http://www.w3.org/2000/svg">
<path d="M0.5 18.5588V20.5C0.5 21.3284 1.17157 22 2 22H18C18.8284 22 19.5 21.3284 19.5 20.5V18.5588C19.5 18.0379 19.2298 17.5543 18.7861 17.2813L13.238 13.867C13.0901 13.776 13 13.6148 13 13.4412V9.91421C13 9.78161 13.0527 9.65443 13.1464 9.56066L14.0607 8.64645C14.342 8.36514 14.5 7.98361 14.5 7.58579V3.53518C14.5 3.03365 14.2493 2.56531 13.8321 2.28711L11.5293 0.751925C11.2829 0.587657 10.9934 0.5 10.6972 0.5H9.30278C9.00664 0.5 8.71713 0.587657 8.47073 0.751925L6.16795 2.28711C5.75065 2.56531 5.5 3.03365 5.5 3.53518V7.58579C5.5 7.98361 5.65804 8.36514 5.93934 8.64645L6.85355 9.56066C6.94732 9.65443 7 9.7816 7 9.91421V13.4412C7 13.6148 6.90992 13.776 6.76205 13.867L1.21385 17.2813C0.770233 17.5543 0.5 18.0379 0.5 18.5588Z" fill="#B8063F" stroke="white"/>
<path d="M21.5 18.5588V20.5C21.5 21.3284 22.1716 22 23 22H39C39.8284 22 40.5 21.3284 40.5 20.5V18.5588C40.5 18.0379 40.2298 17.5543 39.7861 17.2813L34.238 13.867C34.0901 13.776 34 13.6148 34 13.4412V9.91421C34 9.78161 34.0527 9.65443 34.1464 9.56066L35.0607 8.64645C35.342 8.36514 35.5 7.98361 35.5 7.58579V3.53518C35.5 3.03365 35.2493 2.56531 34.8321 2.28711L32.5293 0.751925C32.2829 0.587657 31.9934 0.5 31.6972 0.5H30.3028C30.0066 0.5 29.7171 0.587657 29.4707 0.751925L27.1679 2.28711C26.7507 2.56531 26.5 3.03365 26.5 3.53518V7.58579C26.5 7.98361 26.658 8.36514 26.9393 8.64645L27.8536 9.56066C27.9473 9.65443 28 9.7816 28 9.91421V13.4412C28 13.6148 27.9099 13.776 27.762 13.867L22.2139 17.2813C21.7702 17.5543 21.5 18.0379 21.5 18.5588Z" fill="#B8063F" stroke="white"/>
<path d="M11 20.0588V22C11 22.8284 11.6716 23.5 12.5 23.5H28.5C29.3284 23.5 30 22.8284 30 22V20.0588C30 19.5379 29.7298 19.0543 29.2861 18.7813L23.738 15.367C23.5901 15.276 23.5 15.1148 23.5 14.9412V11.4142C23.5 11.2816 23.5527 11.1544 23.6464 11.0607L24.5607 10.1464C24.842 9.86514 25 9.48361 25 9.08579V5.03518C25 4.53365 24.7493 4.06531 24.3321 3.78711L22.0293 2.25192C21.7829 2.08766 21.4934 2 21.1972 2H19.8028C19.5066 2 19.2171 2.08766 18.9707 2.25192L16.6679 3.78711C16.2507 4.06531 16 4.53365 16 5.03518V9.08579C16 9.48361 16.158 9.86514 16.4393 10.1464L17.3536 11.0607C17.4473 11.1544 17.5 11.2816 17.5 11.4142V14.9412C17.5 15.1148 17.4099 15.276 17.262 15.367L11.7139 18.7813C11.2702 19.0543 11 19.5379 11 20.0588Z" fill="#B8063F" stroke="white"/>
</svg>
