<svg width="26" height="27" viewBox="0 0 26 27" fill="none" xmlns="http://www.w3.org/2000/svg">
<path d="M16.8993 21.5H19.2639C19.4192 21.5 19.5723 21.4639 19.7111 21.3944L19.9472 21.2764C20.286 21.107 20.5 20.7607 20.5 20.382V18V16.9142C20.5 16.649 20.3946 16.3946 20.2071 16.2071L19.7929 15.7929C19.6054 15.6054 19.351 15.5 19.0858 15.5H18.5C17.9477 15.5 17.5 15.9477 17.5 16.5V17.782C17.5 18.1785 17.1785 18.5 16.782 18.5C16.6007 18.5 16.4262 18.4315 16.2934 18.3081L9.81955 12.2967C9.61578 12.1075 9.5 11.842 9.5 11.5639V10.5C9.5 9.94772 9.94772 9.5 10.5 9.5C11.0523 9.5 11.5 9.05228 11.5 8.5V7.91421C11.5 7.649 11.3946 7.39464 11.2071 7.20711L10.7929 6.79289C10.6054 6.60536 10.351 6.5 10.0858 6.5H8.91421C8.649 6.5 8.39464 6.60536 8.20711 6.79289L6.79289 8.20711C6.60536 8.39464 6.5 8.649 6.5 8.91421V11.5707C6.5 11.8448 6.61252 12.1069 6.81125 12.2957L16.2105 21.225C16.3964 21.4016 16.6429 21.5 16.8993 21.5Z" fill="black"/>
<mask id="mask0_4_26" style="mask-type:alpha" maskUnits="userSpaceOnUse" x="0" y="0" width="26" height="27">
<path fill-rule="evenodd" clip-rule="evenodd" d="M26 0H0V27H14V22H24V27H26V0Z" fill="#D9D9D9"/>
</mask>
<g mask="url(#mask0_4_26)">
<circle cx="13" cy="13" r="12.5" stroke="black"/>
</g>
<path d="M14 7.5L17.5 8.5L19.5 10.5L20.5 13.5" stroke="black" stroke-linecap="round"/>
<path d="M14.5 4.5L18 5.5L22 9.5L23 13.5" stroke="black" stroke-linecap="round"/>
<path d="M17 22H21H22V21H20.5H16L17 22Z" fill="black"/>
</svg>
