<svg width="27" height="33" viewBox="0 0 27 33" fill="none" xmlns="http://www.w3.org/2000/svg">
<path d="M0.047141 19.1452C1.43087 23.3476 5.84847 31.7488 12.918 32.986C12.9723 32.9955 13.0277 33 13.0828 33H13.8826C13.9606 33 14.0355 32.9918 14.1112 32.9728C17.6414 32.0889 24.9585 28.2407 26.9745 19.6105C26.9915 19.5379 27 19.4624 27 19.3878V5.95351C27 5.41972 26.5827 4.98145 26.0509 4.93568C22.4852 4.6288 16.4892 3.43296 14.3176 0.492234C14.1024 0.200851 13.7754 0 13.4131 0C13.1486 0 12.8976 0.104576 12.7051 0.285976C10.5494 2.31706 5.84761 5.55513 1.24179 5.19017C0.600712 5.13937 0 5.61397 0 6.25705V18.8439C0 18.9473 0.0147896 19.0469 0.047141 19.1452Z" fill="#B8063F"/>
<rect x="10.1213" y="14.5688" width="7" height="3" rx="1" transform="rotate(45 10.1213 14.5688)" fill="white"/>
<rect width="9.92576" height="3" rx="1" transform="matrix(-0.707107 0.707107 0.707107 0.707107 18.0186 12.5)" fill="white"/>
</svg>
