<svg width="34" height="34" viewBox="0 0 34 34" fill="none" xmlns="http://www.w3.org/2000/svg">
<path fill-rule="evenodd" clip-rule="evenodd" d="M17.2985 0.287168C16.9093 -0.0957221 16.285 -0.0957228 15.8958 0.287167L11.8828 4.23543C11.6978 4.41748 11.4492 4.52045 11.1896 4.52256L5.56017 4.56833C5.01424 4.57277 4.57277 5.01424 4.56833 5.56017L4.52256 11.1896C4.52045 11.4492 4.41748 11.6978 4.23543 11.8828L0.287168 15.8958C-0.0957221 16.285 -0.0957228 16.9093 0.287167 17.2985L4.23543 21.3115C4.41748 21.4965 4.52045 21.7451 4.52256 22.0047L4.56833 27.6341C4.57277 28.1801 5.01424 28.6215 5.56017 28.626L11.1896 28.6717C11.4492 28.6738 11.6978 28.7768 11.8828 28.9589L15.8958 32.9071C16.285 33.29 16.9093 33.29 17.2985 32.9071L21.3115 28.9589C21.4965 28.7768 21.7451 28.6738 22.0047 28.6717L27.6341 28.626C28.1801 28.6215 28.6215 28.18 28.626 27.6341L28.6717 22.0047C28.6738 21.7451 28.7768 21.4965 28.9589 21.3115L32.9071 17.2985C33.29 16.9093 33.29 16.285 32.9071 15.8958L28.9589 11.8828C28.7768 11.6978 28.6738 11.4492 28.6717 11.1896L28.626 5.56017C28.6215 5.01424 28.18 4.57277 27.6341 4.56833L22.0047 4.52256C21.7451 4.52045 21.4965 4.41748 21.3115 4.23543L17.2985 0.287168ZM16.5972 26.5971C22.12 26.5971 26.5972 22.12 26.5972 16.5971C26.5972 11.0743 22.12 6.59714 16.5972 6.59714C11.0743 6.59714 6.59715 11.0743 6.59715 16.5971C6.59715 22.12 11.0743 26.5971 16.5972 26.5971Z" fill="#B8063F"/>
<path d="M18.2929 20.7929L22.5 25L23.7929 26.2929C24.1834 26.6834 24.8166 26.6834 25.2071 26.2929L26.2929 25.2071C26.6834 24.8166 26.6834 24.1834 26.2929 23.7929L25 22.5L20.7929 18.2929C20.6054 18.1054 20.5 17.851 20.5 17.5858V13.4599C20.5 13.168 20.3724 12.8907 20.1508 12.7007L17.2211 10.1895C17.0767 10.0657 16.9 9.98571 16.7117 9.95882L15.7141 9.8163C14.8584 9.69406 14.2612 10.6417 14.7406 11.3609L15.4451 12.4176C15.4816 12.4724 15.5235 12.5235 15.57 12.57L15.7643 12.7643C15.9173 12.9173 16.0165 13.1158 16.0471 13.33L16.3114 15.1801C16.4057 15.84 15.84 16.4057 15.1801 16.3114L13.33 16.0471C13.1158 16.0165 12.9173 15.9173 12.7643 15.7643L11.7071 14.7071C11.0771 14.0771 10 14.5233 10 15.4142V16.6301C10 16.8688 10.0854 17.0996 10.2407 17.2809L12.7007 20.1508C12.8907 20.3724 13.168 20.5 13.4599 20.5H17.5858C17.851 20.5 18.1054 20.6054 18.2929 20.7929Z" fill="#B8063F"/>
</svg>
