<svg width="28" height="32" viewBox="0 0 28 32" fill="none" xmlns="http://www.w3.org/2000/svg">
<path fill-rule="evenodd" clip-rule="evenodd" d="M18.8684 1.2695C18.6284 0.786471 18.0485 0.580858 17.5578 0.80477L14.5583 2.17342C14.2777 2.30147 13.9537 2.29285 13.6803 2.15007L10.7578 0.623894C10.2797 0.374211 9.68969 0.548706 9.4243 1.01829L7.80214 3.88861C7.65038 4.15714 7.3832 4.34061 7.07808 4.3858L3.81668 4.86889C3.28311 4.94792 2.90837 5.43588 2.96969 5.97177L3.34446 9.24738C3.37952 9.55383 3.27121 9.85931 3.05093 10.0752L0.696352 12.383C0.311142 12.7606 0.294782 13.3756 0.659375 13.7731L2.88793 16.2029C3.09642 16.4302 3.18835 16.741 3.13705 17.0452L2.58866 20.2962C2.49895 20.8281 2.84722 21.3353 3.37583 21.4426L6.60693 22.0983C6.90922 22.1597 7.16627 22.3571 7.30354 22.6333L8.77082 25.5858C9.01086 26.0689 9.59073 26.2745 10.0815 26.0506L13.0809 24.6819C13.3615 24.5539 13.6855 24.5625 13.959 24.7053L16.8814 26.2314C17.3596 26.4811 17.9495 26.3066 18.2149 25.837L19.8371 22.9667C19.9888 22.6982 20.256 22.5147 20.5611 22.4695L23.8225 21.9864C24.3561 21.9074 24.7309 21.4194 24.6695 20.8836L24.2948 17.6079C24.2597 17.3015 24.368 16.996 24.5883 16.7801L26.9429 14.4723C27.3281 14.0947 27.3444 13.4797 26.9799 13.0822L24.7513 10.6524C24.5428 10.4251 24.4509 10.1143 24.5022 9.81017L25.0506 6.55911C25.1403 6.02724 24.792 5.52005 24.2634 5.41277L21.0323 4.75698C20.73 4.69563 20.473 4.49821 20.3357 4.22199L18.8684 1.2695ZM14 19C16.7614 19 19 16.7614 19 14C19 11.2386 16.7614 8.99998 14 8.99998C11.2386 8.99998 8.99998 11.2386 8.99998 14C8.99998 16.7614 11.2386 19 14 19Z" fill="#B8063F"/>
<path d="M6.49998 31V28.5L9.99998 30L13.5 28.5L17.5 30L20.5 28.5V31.5H6.49998V31Z" fill="#B8063F"/>
</svg>
